<svg id="Layer_1" data-name="Layer 1" xmlns="http://www.w3.org/2000/svg" viewBox="0 0 73.53 70.23"><defs><style>.cls-1{fill:#fff;}</style></defs><title>icon</title><path class="cls-1" d="M7.83,44.29h4.11a33.85,33.85,0,0,0,8.22,9,33.19,33.19,0,0,0,10.47,5.39,39.74,39.74,0,0,0,11.86,1.76,30.66,30.66,0,0,0,13.3-2.65c3.7-1.73,5.5-4,5.5-6.74a6.65,6.65,0,0,0-3.65-6,25.24,25.24,0,0,0-8.73-3q-5.08-.89-13.4-1.59c-5.55-.51-9.45-1-11.81-1.4a37,37,0,0,1-9.14-2.79A15.41,15.41,0,0,1,8.81,32a8.46,8.46,0,0,1-1.95-5.31,8.87,8.87,0,0,1,1.74-5.2,15.5,15.5,0,0,1,4.88-4.42,27.3,27.3,0,0,1,7.75-3A42.28,42.28,0,0,1,31.35,12.9c2.67,0,6,.22,9.91.61s6.73.64,8.52.64a24.6,24.6,0,0,0,6.32-.81h4.72l2.67,13.87H59.13a47.29,47.29,0,0,0-12.74-9.48,35.6,35.6,0,0,0-15.66-3.24,29.14,29.14,0,0,0-8.31,1.12,16.48,16.48,0,0,0-6.17,3.13,5.78,5.78,0,0,0-2.31,4.39c0,2.26,1.39,4,4.21,5.17s7,2.09,12.48,2.71,10.48,1.12,14.84,1.54a67.56,67.56,0,0,1,10.37,1.64,28.08,28.08,0,0,1,11,5.23c2.62,2.24,3.9,4.75,3.9,7.58a10.43,10.43,0,0,1-3.59,7.57A26,26,0,0,1,57,60.19a47.3,47.3,0,0,1-14.53,2.1,45.29,45.29,0,0,1-6.78-.37c-1.54-.25-4.15-.72-7.9-1.45a47.84,47.84,0,0,0-8.58-1.09,13.42,13.42,0,0,0-7.85,2.07H7.83ZM9.89,22.73a11.08,11.08,0,0,0-1,4.14,7,7,0,0,0,1.08,3.61,13.1,13.1,0,0,0,3.28,3.41,19.4,19.4,0,0,0,4.93,2.6,36.88,36.88,0,0,0,8.06,1.93c2.93.36,7.19.81,12.84,1.31a110.72,110.72,0,0,1,11.71,1.45,23.61,23.61,0,0,1,9.29,3.64c2.21,1.62,3.29,3.52,3.29,5.7,0,1.62-.82,3.33-2.52,5.11q5.08-2.85,5.09-6.7a7.09,7.09,0,0,0-3.75-6.27,28.36,28.36,0,0,0-9.3-3.38c-3.74-.72-8.78-1.4-15.19-2s-9.71-1-9.86-1C22,35.45,17.49,34,14.46,32s-4.57-4.42-4.57-7.1a9.19,9.19,0,0,0-.05-1.26A5,5,0,0,1,9.89,22.73Zm0,27.84v9a9.79,9.79,0,0,1,3.33-1.67,20,20,0,0,1,4.68-.28c-1.39-.9-2.37-1.54-2.93-2a19.36,19.36,0,0,1-2.26-1.84A24.2,24.2,0,0,1,9.89,50.57ZM56.66,22.45l-2-6.45a22.87,22.87,0,0,1-4.11.39A34,34,0,0,1,45.68,16,30.72,30.72,0,0,1,50,18c1.23.73,2.52,1.6,3.9,2.6A23.77,23.77,0,0,0,56.66,22.45Z" transform="translate(-2.03 -5.08)"/><path class="cls-1" d="M12.68,7.09v-2H75.56v2c-5.52.1-9.39.28-11.68.49A57.6,57.6,0,0,0,55.33,9c-2.43.74-4.59,1.6-5.39,4.94l.55,47c0-.22.39,4.88-1.14,7.21s-4.51,3.89-9.56,5.08a66.39,66.39,0,0,1-16.54,2C17,75.31,12,74.64,8,73.29s-6-2.9-6-4.73c0-1.1.87-2.08,2.6-3a15.07,15.07,0,0,1,7-1.31,18.26,18.26,0,0,1,7.49,1.37c2,.95,3.08,2.14,3.24,3.61a7,7,0,0,0,.94,2.93c.56.71,1.74,1.07,3.55,1.07,3.87,0,5.84-1.8,5.84-5.38V15.35a9.75,9.75,0,0,0-.87-4.56,4.46,4.46,0,0,0-2.84-2.26,24,24,0,0,0-5.52-1C21,7.37,17.49,7.22,12.68,7.09Zm5.76,60.79a9.23,9.23,0,0,0-6.71-2.35A10.83,10.83,0,0,0,7,66.45c-1.26.61-1.89,1.34-1.89,2.2,0,1.1,1.1,2.14,3.39,3.11A38.08,38.08,0,0,0,18.44,74c-3-1.23-5.05-2.11-6.07-2.66a2.47,2.47,0,0,1-1.58-2.11c0-.86.87-1.38,2.52-1.62A12.62,12.62,0,0,1,18.44,67.88ZM42,65.53V14.67c0-2.9-.63-4.89-1.81-6S36,7.09,31.06,7.09h-2c2.6.46,4.34,1.14,5.29,2a4.44,4.44,0,0,1,1.42,3.52v55.1c0,2.11-1.11,3.94-3.16,5.59,4-.67,6.47-1.59,7.65-2.75A6.6,6.6,0,0,0,42,65.53Z" transform="translate(-2.03 -5.08)"/></svg>